{
    "asset" : {
        "generator" : "Khronos glTF Blender I/O v1.7.33",
        "version" : "2.0"
    },
    "scene" : 0,
    "scenes" : [
        {
            "name" : "Scene",
            "nodes" : [
                0
            ]
        }
    ],
    "nodes" : [
        {
            "mesh" : 0,
            "name" : "Cube.007",
            "scale" : [
                0.13366162776947021,
                0.03800232708454132,
                0.023987706750631332
            ],
            "translation" : [
                0.8575342893600464,
                0.060337863862514496,
                0.32640916109085083
            ]
        }
    ],
    "materials" : [
        {
            "doubleSided" : true,
            "name" : "Material",
            "pbrMetallicRoughness" : {
                "baseColorFactor" : [
                    0.08984094113111496,
                    0.08984094113111496,
                    0.08984094113111496,
                    1
                ],
                "metallicFactor" : 0,
                "roughnessFactor" : 0.4000000059604645
            }
        },
        {
            "doubleSided" : true,
            "name" : "Material.001",
            "pbrMetallicRoughness" : {
                "baseColorFactor" : [
                    0.512160062789917,
                    0.512160062789917,
                    0.512160062789917,
                    1
                ],
                "metallicFactor" : 0,
                "roughnessFactor" : 0.5
            }
        },
        {
            "doubleSided" : true,
            "name" : "Material.002",
            "pbrMetallicRoughness" : {
                "baseColorTexture" : {
                    "index" : 0
                },
                "metallicFactor" : 0,
                "roughnessFactor" : 0.5
            }
        },
        {
            "doubleSided" : true,
            "name" : "Material.003",
            "pbrMetallicRoughness" : {
                "baseColorFactor" : [
                    0.10149961709976196,
                    0.8000000715255737,
                    0.03346169367432594,
                    1
                ],
                "metallicFactor" : 0,
                "roughnessFactor" : 0.5
            }
        }
    ],
    "meshes" : [
        {
            "name" : "Cube.008",
            "primitives" : [
                {
                    "attributes" : {
                        "POSITION" : 0,
                        "NORMAL" : 1,
                        "TEXCOORD_0" : 2
                    },
                    "indices" : 3,
                    "material" : 0
                },
                {
                    "attributes" : {
                        "POSITION" : 4,
                        "NORMAL" : 5,
                        "TEXCOORD_0" : 6
                    },
                    "indices" : 7,
                    "material" : 1
                },
                {
                    "attributes" : {
                        "POSITION" : 8,
                        "NORMAL" : 9,
                        "TEXCOORD_0" : 10
                    },
                    "indices" : 11,
                    "material" : 2
                },
                {
                    "attributes" : {
                        "POSITION" : 12,
                        "NORMAL" : 13,
                        "TEXCOORD_0" : 14
                    },
                    "indices" : 15,
                    "material" : 3
                }
            ]
        }
    ],
    "textures" : [
        {
            "sampler" : 0,
            "source" : 0
        }
    ],
    "images" : [
        {
            "mimeType" : "image/jpeg",
            "name" : "kpm power",
            "uri" : "kpm%20power.jpg"
        }
    ],
    "accessors" : [
        {
            "bufferView" : 0,
            "componentType" : 5126,
            "count" : 1464,
            "max" : [
                1.0658655166625977,
                4.304723739624023,
                41.01049041748047
            ],
            "min" : [
                -13.897287368774414,
                -7.480206489562988,
                -68.2251968383789
            ],
            "type" : "VEC3"
        },
        {
            "bufferView" : 1,
            "componentType" : 5126,
            "count" : 1464,
            "type" : "VEC3"
        },
        {
            "bufferView" : 2,
            "componentType" : 5126,
            "count" : 1464,
            "type" : "VEC2"
        },
        {
            "bufferView" : 3,
            "componentType" : 5123,
            "count" : 2814,
            "type" : "SCALAR"
        },
        {
            "bufferView" : 4,
            "componentType" : 5126,
            "count" : 104,
            "max" : [
                1.0000001192092896,
                1.6481664180755615,
                13.448012351989746
            ],
            "min" : [
                -1.0000001192092896,
                -1,
                -47.356441497802734
            ],
            "type" : "VEC3"
        },
        {
            "bufferView" : 5,
            "componentType" : 5126,
            "count" : 104,
            "type" : "VEC3"
        },
        {
            "bufferView" : 6,
            "componentType" : 5126,
            "count" : 104,
            "type" : "VEC2"
        },
        {
            "bufferView" : 7,
            "componentType" : 5123,
            "count" : 156,
            "type" : "SCALAR"
        },
        {
            "bufferView" : 8,
            "componentType" : 5126,
            "count" : 4,
            "max" : [
                0.7634487152099609,
                4.3572587966918945,
                27.591445922851562
            ],
            "min" : [
                -13.594871520996094,
                4.3572587966918945,
                -52.41438293457031
            ],
            "type" : "VEC3"
        },
        {
            "bufferView" : 9,
            "componentType" : 5126,
            "count" : 4,
            "type" : "VEC3"
        },
        {
            "bufferView" : 10,
            "componentType" : 5126,
            "count" : 4,
            "type" : "VEC2"
        },
        {
            "bufferView" : 11,
            "componentType" : 5123,
            "count" : 6,
            "type" : "SCALAR"
        },
        {
            "bufferView" : 12,
            "componentType" : 5126,
            "count" : 64,
            "max" : [
                1.0658655166625977,
                1.4249589443206787,
                16.951515197753906
            ],
            "min" : [
                0.5866731405258179,
                -3.918743848800659,
                -52.70732498168945
            ],
            "type" : "VEC3"
        },
        {
            "bufferView" : 13,
            "componentType" : 5126,
            "count" : 64,
            "type" : "VEC3"
        },
        {
            "bufferView" : 14,
            "componentType" : 5126,
            "count" : 64,
            "type" : "VEC2"
        },
        {
            "bufferView" : 15,
            "componentType" : 5123,
            "count" : 96,
            "type" : "SCALAR"
        }
    ],
    "bufferViews" : [
        {
            "buffer" : 0,
            "byteLength" : 17568,
            "byteOffset" : 0
        },
        {
            "buffer" : 0,
            "byteLength" : 17568,
            "byteOffset" : 17568
        },
        {
            "buffer" : 0,
            "byteLength" : 11712,
            "byteOffset" : 35136
        },
        {
            "buffer" : 0,
            "byteLength" : 5628,
            "byteOffset" : 46848
        },
        {
            "buffer" : 0,
            "byteLength" : 1248,
            "byteOffset" : 52476
        },
        {
            "buffer" : 0,
            "byteLength" : 1248,
            "byteOffset" : 53724
        },
        {
            "buffer" : 0,
            "byteLength" : 832,
            "byteOffset" : 54972
        },
        {
            "buffer" : 0,
            "byteLength" : 312,
            "byteOffset" : 55804
        },
        {
            "buffer" : 0,
            "byteLength" : 48,
            "byteOffset" : 56116
        },
        {
            "buffer" : 0,
            "byteLength" : 48,
            "byteOffset" : 56164
        },
        {
            "buffer" : 0,
            "byteLength" : 32,
            "byteOffset" : 56212
        },
        {
            "buffer" : 0,
            "byteLength" : 12,
            "byteOffset" : 56244
        },
        {
            "buffer" : 0,
            "byteLength" : 768,
            "byteOffset" : 56256
        },
        {
            "buffer" : 0,
            "byteLength" : 768,
            "byteOffset" : 57024
        },
        {
            "buffer" : 0,
            "byteLength" : 512,
            "byteOffset" : 57792
        },
        {
            "buffer" : 0,
            "byteLength" : 192,
            "byteOffset" : 58304
        }
    ],
    "samplers" : [
        {
            "magFilter" : 9729,
            "minFilter" : 9987
        }
    ],
    "buffers" : [
        {
            "byteLength" : 58496,
            "uri" : "KPMPower.bin"
        }
    ]
}
